<?xml version="1.0" standalone="no"?>
<!DOCTYPE svg PUBLIC "-//W3C//DTD SVG 20010904//EN"
 "http://www.w3.org/TR/2001/REC-SVG-20010904/DTD/svg10.dtd">
<svg version="1.0" xmlns="http://www.w3.org/2000/svg"
 width="1000.000000pt" height="1000.000000pt" viewBox="0 0 1000.000000 1000.000000"
 preserveAspectRatio="xMidYMid meet">
<metadata>
Created by potrace 1.11, written by Peter Selinger 2001-2013
</metadata>
<g transform="translate(0.000000,1000.000000) scale(0.100000,-0.100000)"
fill="#000000" stroke="none">
<path d="M4963 9843 c15 -2 37 -2 50 0 12 2 0 4 -28 4 -27 0 -38 -2 -22 -4z"/>
<path d="M1420 5400 l0 -2290 115 0 115 0 0 -120 0 -121 1238 4 c1363 4 1302
1 1572 68 134 33 229 68 340 124 l70 35 0 -430 0 -430 115 0 115 0 0 -120 0
-120 893 0 c742 0 914 3 1017 15 600 74 1049 329 1390 790 329 445 476 957
457 1594 -18 595 -153 990 -486 1419 -73 93 -297 333 -457 489 -250 244 -504
377 -855 447 -278 57 -316 59 -1125 63 l-751 4 -49 72 c-27 40 -98 122 -159
184 -60 61 -141 146 -179 188 -174 193 -381 313 -638 371 -228 52 -290 54
-1560 54 l-1178 0 0 -2290z m2529 2256 c332 -43 543 -132 753 -317 133 -118
255 -296 303 -442 l27 -85 777 -5 c461 -3 819 -9 881 -16 599 -63 881 -180
1214 -501 181 -175 354 -401 460 -600 102 -193 186 -465 223 -725 25 -182 26
-656 0 -830 -78 -527 -291 -968 -637 -1315 -342 -344 -766 -523 -1325 -560
-82 -5 -509 -10 -947 -10 l-798 0 0 657 0 656 -57 -55 c-210 -199 -479 -310
-884 -364 -108 -15 -278 -18 -1316 -21 l-1193 -4 0 2281 0 2281 1193 -4 c1059
-3 1207 -5 1326 -21z"/>
<path d="M2480 6380 l0 -511 533 3 c510 4 535 5 610 26 100 28 190 76 228 121
43 52 105 177 123 247 44 170 -4 358 -123 482 -57 59 -117 95 -196 118 -53 16
-126 18 -617 22 l-558 3 0 -511z m1210 250 c85 -5 175 -16 200 -23 42 -12 46
-16 63 -67 27 -78 25 -215 -3 -300 -67 -203 -159 -287 -364 -332 -79 -18 -140
-21 -478 -25 l-388 -5 0 381 0 381 408 0 c224 0 477 -5 562 -10z"/>
<path d="M5910 4541 l0 -1451 293 0 c369 0 472 15 654 95 493 218 785 1019
643 1759 -70 362 -262 709 -475 861 -87 63 -214 121 -330 152 -97 26 -109 27
-442 31 l-343 4 0 -1451z m930 1175 c156 -29 332 -100 390 -157 41 -42 153
-270 194 -398 167 -515 109 -1114 -150 -1552 -154 -260 -334 -400 -602 -469
-88 -22 -269 -39 -419 -40 l-93 0 0 1321 0 1322 298 -6 c207 -3 323 -10 382
-21z"/>
<path d="M4798 5819 c-117 -120 -295 -227 -480 -288 -38 -13 -68 -28 -68 -35
0 -8 34 -22 83 -35 176 -47 328 -124 468 -237 l79 -65 0 371 c0 203 -1 370 -2
369 -2 -1 -37 -36 -80 -80z m72 -515 l0 -116 -52 45 c-29 24 -70 55 -90 69
l-38 25 76 39 c42 21 78 42 80 46 17 27 24 -6 24 -108z"/>
<path d="M2480 4511 l0 -561 503 0 c601 0 687 9 851 92 242 122 338 457 206
718 -70 138 -195 232 -375 282 -77 21 -99 22 -632 26 l-553 3 0 -560z m1251
299 c107 -11 230 -39 279 -65 42 -22 62 -83 68 -205 13 -286 -129 -473 -409
-540 -128 -30 -283 -40 -631 -40 l-318 0 0 430 0 430 454 0 c250 0 500 -5 557
-10z"/>
<path d="M9801 5524 c0 -11 3 -14 6 -6 3 7 2 16 -1 19 -3 4 -6 -2 -5 -13z"/>
<path d="M9812 5410 c0 -19 2 -27 5 -17 2 9 2 25 0 35 -3 9 -5 1 -5 -18z"/>
<path d="M9822 5285 c0 -16 2 -22 5 -12 2 9 2 23 0 30 -3 6 -5 -1 -5 -18z"/>
<path d="M133 4995 c0 -27 2 -38 4 -22 2 15 2 37 0 50 -2 12 -4 0 -4 -28z"/>
<path d="M9833 4985 c0 -22 2 -30 4 -17 2 12 2 30 0 40 -3 9 -5 -1 -4 -23z"/>
<path d="M9823 4725 c0 -27 2 -38 4 -22 2 15 2 37 0 50 -2 12 -4 0 -4 -28z"/>
<path d="M9812 4580 c0 -19 2 -27 5 -17 2 9 2 25 0 35 -3 9 -5 1 -5 -18z"/>
<path d="M9802 4475 c0 -16 2 -22 5 -12 2 9 2 23 0 30 -3 6 -5 -1 -5 -18z"/>
<path d="M9792 4390 c0 -14 2 -19 5 -12 2 6 2 18 0 25 -3 6 -5 1 -5 -13z"/>
<path d="M9781 4314 c0 -11 3 -14 6 -6 3 7 2 16 -1 19 -3 4 -6 -2 -5 -13z"/>
<path d="M9771 4244 c0 -11 3 -14 6 -6 3 7 2 16 -1 19 -3 4 -6 -2 -5 -13z"/>
<path d="M9761 4184 c0 -11 3 -14 6 -6 3 7 2 16 -1 19 -3 4 -6 -2 -5 -13z"/>
<path d="M9751 4124 c0 -11 3 -14 6 -6 3 7 2 16 -1 19 -3 4 -6 -2 -5 -13z"/>
<path d="M9741 4074 c0 -11 3 -14 6 -6 3 7 2 16 -1 19 -3 4 -6 -2 -5 -13z"/>
<path d="M9722 3980 c0 -14 2 -19 5 -12 2 6 2 18 0 25 -3 6 -5 1 -5 -13z"/>
<path d="M9701 3894 c0 -11 3 -14 6 -6 3 7 2 16 -1 19 -3 4 -6 -2 -5 -13z"/>
<path d="M9681 3804 c0 -11 3 -14 6 -6 3 7 2 16 -1 19 -3 4 -6 -2 -5 -13z"/>
<path d="M9661 3734 c0 -11 3 -14 6 -6 3 7 2 16 -1 19 -3 4 -6 -2 -5 -13z"/>
<path d="M9651 3694 c0 -11 3 -14 6 -6 3 7 2 16 -1 19 -3 4 -6 -2 -5 -13z"/>
<path d="M9626 3614 c-4 -14 -5 -28 -3 -31 3 -2 8 8 11 23 4 14 5 28 3 31 -3
2 -8 -8 -11 -23z"/>
<path d="M9586 3507 c3 -10 9 -15 12 -12 3 3 0 11 -7 18 -10 9 -11 8 -5 -6z"/>
<path d="M9490 3436 c0 -2 8 -10 18 -17 15 -13 16 -12 3 4 -13 16 -21 21 -21
13z"/>
<path d="M9416 3328 c3 -5 10 -6 15 -3 13 9 11 12 -6 12 -8 0 -12 -4 -9 -9z"/>
<path d="M9530 3321 c0 -7 -4 -9 -10 -6 -6 4 -7 -1 -3 -11 6 -15 7 -15 15 1 6
9 7 19 4 22 -3 4 -6 1 -6 -6z"/>
<path d="M9503 3253 c-1 -24 -1 -25 7 -8 11 26 12 35 2 35 -4 0 -8 -12 -9 -27z"/>
<path d="M9476 3185 c-9 -26 -7 -32 5 -12 6 10 9 21 6 23 -2 3 -7 -2 -11 -11z"/>
<path d="M9330 3070 c0 -5 5 -10 11 -10 5 0 7 5 4 10 -3 6 -8 10 -11 10 -2 0
-4 -4 -4 -10z"/>
<path d="M9407 3033 c3 -7 6 -13 8 -13 2 0 5 6 8 13 3 8 -1 14 -8 14 -7 0 -11
-6 -8 -14z"/>
<path d="M9387 3017 c-3 -8 1 -14 8 -14 7 0 11 6 8 14 -3 7 -6 13 -8 13 -2 0
-5 -6 -8 -13z"/>
<path d="M9383 2983 c-7 -2 -9 -11 -6 -19 3 -9 0 -12 -8 -9 -10 4 -14 -5 -16
-32 l-2 -38 25 48 c26 51 27 57 7 50z"/>
<path d="M9325 2911 c-3 -5 -2 -12 3 -15 5 -3 9 1 9 9 0 17 -3 19 -12 6z"/>
<path d="M9282 2876 c7 -8 15 -12 17 -11 5 6 -10 25 -20 25 -5 0 -4 -6 3 -14z"/>
<path d="M9320 2845 c-6 -8 -10 -19 -8 -26 2 -6 9 0 16 15 13 29 10 33 -8 11z"/>
<path d="M9288 2793 c7 -3 16 -2 19 1 4 3 -2 6 -13 5 -11 0 -14 -3 -6 -6z"/>
<path d="M9275 2770 c-11 -5 -15 -9 -8 -9 7 -1 10 -8 7 -16 -4 -8 -10 -13 -14
-10 -5 3 -12 0 -16 -6 -4 -8 -3 -9 4 -5 7 4 12 4 12 -1 -1 -12 -30 -49 -36
-45 -2 2 -10 1 -17 -1 -8 -4 -7 -6 3 -6 13 -1 13 -2 0 -11 -9 -6 -11 -10 -3
-10 7 0 10 -7 7 -17 -5 -15 -4 -15 4 -3 6 8 8 18 6 22 -3 4 -1 8 4 8 5 0 24
27 41 60 18 33 31 60 29 59 -2 0 -12 -4 -23 -9z"/>
<path d="M9226 2755 c-9 -26 -7 -32 5 -12 6 10 9 21 6 23 -2 3 -7 -2 -11 -11z"/>
<path d="M9165 2650 c11 -14 21 -27 22 -29 1 -2 1 6 0 17 0 12 -3 19 -6 17 -2
-3 -11 1 -20 7 -10 8 -8 3 4 -12z"/>
<path d="M9115 2640 c3 -5 8 -10 11 -10 2 0 4 5 4 10 0 6 -5 10 -11 10 -5 0
-7 -4 -4 -10z"/>
<path d="M9136 2603 c-6 -14 -5 -15 5 -6 7 7 10 15 7 18 -3 3 -9 -2 -12 -12z"/>
<path d="M9186 2598 c3 -5 10 -6 15 -3 13 9 11 12 -6 12 -8 0 -12 -4 -9 -9z"/>
<path d="M9135 2530 c3 -5 11 -10 16 -10 6 0 7 5 4 10 -3 6 -11 10 -16 10 -6
0 -7 -4 -4 -10z"/>
<path d="M9079 2493 c-13 -16 -12 -17 4 -4 16 13 21 21 13 21 -2 0 -10 -8 -17
-17z"/>
<path d="M9130 2490 c-6 -11 -8 -20 -6 -20 3 0 10 9 16 20 6 11 8 20 6 20 -3
0 -10 -9 -16 -20z"/>
<path d="M9100 2450 c-9 -6 -10 -10 -3 -10 6 0 15 5 18 10 8 12 4 12 -15 0z"/>
<path d="M9077 2410 c-3 -11 -3 -20 -1 -20 2 0 8 9 14 20 6 11 7 20 2 20 -6 0
-12 -9 -15 -20z"/>
<path d="M9051 2371 c-8 -5 -16 -17 -17 -26 -1 -9 1 -14 4 -10 4 4 6 9 4 12
-2 3 5 11 15 19 20 15 16 19 -6 5z"/>
<path d="M9009 2327 c6 -8 7 -18 3 -22 -4 -5 -1 -5 6 -1 10 6 10 11 1 22 -6 8
-14 14 -16 14 -3 0 0 -6 6 -13z"/>
<path d="M8993 2285 c0 -8 4 -12 9 -9 5 3 6 10 3 15 -9 13 -12 11 -12 -6z"/>
<path d="M8965 2250 c4 -6 11 -8 16 -5 14 9 11 15 -7 15 -8 0 -12 -5 -9 -10z"/>
<path d="M8931 2223 c-2 -20 16 -24 30 -5 13 15 12 16 -3 4 -13 -10 -17 -10
-21 0 -4 9 -6 9 -6 1z"/>
<path d="M8920 2179 c0 -5 5 -7 10 -4 6 3 10 8 10 11 0 2 -4 4 -10 4 -5 0 -10
-5 -10 -11z"/>
<path d="M8900 2149 c0 -5 -5 -7 -12 -3 -7 4 -8 3 -4 -5 6 -9 11 -9 22 0 17
14 18 19 4 19 -5 0 -10 -5 -10 -11z"/>
<path d="M8825 2129 c-4 -6 -5 -12 -2 -15 2 -3 7 2 10 11 7 17 1 20 -8 4z"/>
<path d="M8853 2111 c-9 -15 -9 -19 0 -17 21 3 38 17 32 27 -9 14 -19 11 -32
-10z"/>
<path d="M8845 2070 c-4 -6 -11 -8 -16 -5 -5 4 -9 1 -9 -4 0 -16 16 -13 30 4
7 8 10 15 7 15 -3 0 -9 -5 -12 -10z"/>
<path d="M8780 2045 c0 -5 5 -17 10 -25 8 -13 12 -12 27 4 14 16 15 17 1 7
-14 -10 -18 -9 -27 6 -6 10 -10 14 -11 8z"/>
<path d="M8767 1975 c-15 -14 -24 -25 -19 -25 5 0 19 11 32 25 30 32 23 32
-13 0z"/>
<path d="M8725 1932 c3 -3 -1 -12 -7 -21 -8 -10 -4 -9 10 3 26 23 26 23 7 23
-8 0 -13 -3 -10 -5z"/>
<path d="M8695 1880 c-4 -6 -10 -8 -14 -6 -4 3 -8 -1 -8 -9 0 -13 4 -12 19 2
18 16 22 23 14 23 -3 0 -8 -5 -11 -10z"/>
<path d="M8619 1793 l-24 -28 28 24 c15 14 27 26 27 28 0 8 -8 1 -31 -24z"/>
<path d="M8525 1688 l-40 -43 43 40 c39 36 47 45 39 45 -2 0 -21 -19 -42 -42z"/>
<path d="M8404 1568 l-19 -23 23 19 c12 11 22 21 22 23 0 8 -8 2 -26 -19z"/>
<path d="M8285 1448 l-50 -53 53 50 c48 46 57 55 49 55 -1 0 -25 -24 -52 -52z"/>
<path d="M8179 1353 l-24 -28 28 24 c15 14 27 26 27 28 0 8 -8 1 -31 -24z"/>
<path d="M8104 1288 l-19 -23 23 19 c12 11 22 21 22 23 0 8 -8 2 -26 -19z"/>
<path d="M7989 1193 c-13 -16 -12 -17 4 -4 16 13 21 21 13 21 -2 0 -10 -8 -17
-17z"/>
<path d="M5278 153 c7 -3 16 -2 19 1 4 3 -2 6 -13 5 -11 0 -14 -3 -6 -6z"/>
<path d="M4973 143 c9 -2 23 -2 30 0 6 3 -1 5 -18 5 -16 0 -22 -2 -12 -5z"/>
</g>
</svg>
